<svg width="160" height="38" viewBox="0 0 160 38" xmlns="http://www.w3.org/2000/svg">
    <g fill="none" fill-rule="evenodd">
        <path d="M122.11 20.371a2.323 2.323 0 1 1-4.646 0 2.323 2.323 0 0 1 4.646 0" fill="#DE2026"/>
        <path d="M68.964 24.49c1.26 0 2.387.263 3.384.786a5.754 5.754 0 0 1 2.344 2.266c.571.988.856 2.14.856 3.462 0 1.321-.285 2.474-.856 3.461a5.746 5.746 0 0 1-2.344 2.266c-.997.526-2.124.786-3.384.786-1.259 0-2.39-.26-3.393-.786a5.747 5.747 0 0 1-2.357-2.266c-.569-.987-.854-2.14-.854-3.461 0-1.322.285-2.474.854-3.462a5.755 5.755 0 0 1 2.357-2.266c1.003-.523 2.134-.785 3.393-.785zm13.984 0c1.26 0 2.387.263 3.384.786a5.754 5.754 0 0 1 2.344 2.266c.57.988.856 2.14.856 3.462 0 1.321-.285 2.474-.856 3.461a5.746 5.746 0 0 1-2.344 2.266c-.997.526-2.123.786-3.384.786-1.259 0-2.39-.26-3.394-.786a5.747 5.747 0 0 1-2.357-2.266c-.568-.987-.852-2.14-.852-3.461 0-1.322.284-2.474.852-3.462a5.755 5.755 0 0 1 2.357-2.266c1.003-.523 2.135-.785 3.394-.785zm70.17 0c1.26 0 2.37.26 3.325.774a5.472 5.472 0 0 1 2.22 2.175c.524.934.787 2.009.787 3.221 0 .323-.038.671-.115 1.05h-8.813c.044.956.288 1.644.729 2.062.44.416 1.001.625 1.684.625.576 0 1.055-.144 1.436-.434.379-.286.629-.658.75-1.115h4.123a5.372 5.372 0 0 1-1.094 2.403 5.814 5.814 0 0 1-2.141 1.662c-.865.403-1.828.604-2.89.604-1.247 0-2.351-.26-3.316-.786a5.61 5.61 0 0 1-2.265-2.266c-.548-.987-.82-2.14-.82-3.462 0-1.335.27-2.493.807-3.474a5.534 5.534 0 0 1 2.269-2.253c.969-.526 2.078-.786 3.325-.786zm-36.349.023v4.167h-1.115c-1.034 0-1.835.222-2.404.663-.568.44-.853 1.183-.853 2.23v5.785h-3.896V24.65h3.896v2.392a5.54 5.54 0 0 1 1.879-1.845 4.783 4.783 0 0 1 2.493-.683zm23.55 0c1.563 0 2.792.484 3.688 1.446.897.964 1.344 2.304 1.344 4.021v7.378h-3.871v-6.924c0-.804-.216-1.43-.648-1.878-.434-.448-1.024-.673-1.768-.673-.772 0-1.384.24-1.831.718-.449.479-.673 1.151-.673 2.016v6.741h-3.896v-6.924c0-.804-.21-1.43-.636-1.878-.426-.448-1.01-.673-1.755-.673-.774 0-1.388.236-1.843.706-.456.473-.684 1.146-.684 2.028v6.741h-3.895V24.65h3.895v2.165a3.795 3.795 0 0 1 1.538-1.687c.69-.409 1.5-.614 2.426-.614.97 0 1.83.225 2.573.67.744.451 1.306 1.091 1.684 1.926a5.104 5.104 0 0 1 1.812-1.89 4.756 4.756 0 0 1 2.54-.706zm-87.342-3.257c1.732 0 3.226.335 4.488 1.001 1.26.67 2.228 1.61 2.903 2.826.676 1.215 1.014 2.612 1.014 4.19 0 1.577-.338 2.981-1.014 4.203-.675 1.222-1.646 2.174-2.916 2.856-1.268.684-2.76 1.025-4.475 1.025h-6.08V21.256h6.08zm48.305-.001c1.914 0 3.37.475 4.374 1.424 1.001.95 1.502 2.229 1.502 3.838 0 1.003-.224 1.894-.671 2.676-.448.783-1.114 1.398-1.994 1.845-.88.448-1.95.672-3.21.672h-2.415v5.648h-3.893V21.255h6.307zm20.453 3.393v12.71h-3.894v-12.71h3.894zm-52.77 3.213c-.745 0-1.37.268-1.879.808-.51.54-.762 1.319-.762 2.335 0 1.017.252 1.792.762 2.322a2.492 2.492 0 0 0 1.878.798c.744 0 1.368-.265 1.868-.798.501-.53.752-1.305.752-2.322 0-1.016-.25-1.795-.752-2.335-.5-.54-1.124-.808-1.868-.808zm13.983 0c-.744 0-1.37.268-1.878.808-.509.54-.762 1.319-.762 2.335 0 1.017.253 1.792.762 2.322a2.492 2.492 0 0 0 1.878.798c.744 0 1.369-.265 1.868-.798.5-.53.752-1.305.752-2.322 0-1.016-.251-1.795-.752-2.335-.5-.54-1.124-.808-1.868-.808zm-30.312-3.19h-1.845v9.203h1.845c1.517 0 2.698-.402 3.541-1.208.843-.803 1.266-1.934 1.266-3.392 0-1.46-.423-2.59-1.266-3.395-.843-.804-2.024-1.207-3.54-1.207zm100.483 2.893c-.716 0-1.306.213-1.779.64-.47.424-.736 1.046-.796 1.865h4.965c.015-.833-.209-1.46-.672-1.878-.462-.417-1.037-.627-1.718-.627zm-52.27-3.165h-1.981v4.19h1.981c1.565 0 2.347-.69 2.347-2.072 0-1.412-.782-2.118-2.347-2.118zM59.499 7.767v2.906c0 .56.139.987.417 1.282.281.296.662.444 1.148.444.508 0 .914-.164 1.216-.49.3-.327.451-.807.451-1.44V7.768h.653v5.086h-.653v-1.255c-.131.44-.367.776-.707 1.005-.342.23-.734.345-1.175.345-.596 0-1.08-.189-1.448-.563-.37-.376-.555-.928-.555-1.655V7.767h.653zm29.213-.065c.515 0 .955.133 1.318.401.362.267.614.62.75 1.063V7.767h.643v5.088h-.643v-1.398a2.034 2.034 0 0 1-.75 1.064c-.363.266-.803.399-1.318.399-.46 0-.872-.105-1.235-.316a2.162 2.162 0 0 1-.848-.908c-.203-.396-.304-.856-.304-1.385 0-.534.101-.998.304-1.394a2.13 2.13 0 0 1 .843-.902 2.428 2.428 0 0 1 1.24-.313zm37.29.002c.498 0 .928.101 1.292.31.365.208.64.486.83.833.189.349.284.727.284 1.136 0 .175-.012.333-.038.477h-4.212c.007.43.095.787.267 1.077.169.288.393.502.666.638s.568.204.884.204c.46 0 .846-.115 1.156-.343.31-.23.496-.542.56-.933h.688c-.093.54-.35.98-.774 1.315-.421.333-.956.5-1.602.5-.483 0-.913-.102-1.29-.31a2.199 2.199 0 0 1-.881-.903c-.211-.394-.315-.858-.315-1.394 0-.535.104-1 .315-1.394a2.19 2.19 0 0 1 .88-.902c.378-.21.808-.311 1.29-.311zm-10.276-.001c.483 0 .916.104 1.299.31.382.209.683.509.9.904.217.396.325.86.325 1.392 0 .536-.108 1-.325 1.39a2.259 2.259 0 0 1-.9.905c-.383.21-.816.315-1.299.315-.485 0-.92-.104-1.306-.315a2.295 2.295 0 0 1-.909-.908c-.218-.397-.33-.857-.33-1.387 0-.532.112-.996.33-1.392a2.26 2.26 0 0 1 .91-.904c.384-.206.82-.31 1.305-.31zm-60.43 0c.483 0 .917.104 1.299.31.382.209.683.509.9.904.218.396.326.86.326 1.392 0 .536-.108 1-.326 1.39a2.259 2.259 0 0 1-.9.905c-.382.21-.816.315-1.299.315-.485 0-.92-.104-1.306-.315a2.284 2.284 0 0 1-.908-.908c-.22-.397-.331-.857-.331-1.387 0-.532.112-.996.331-1.392a2.25 2.25 0 0 1 .908-.904c.385-.206.821-.31 1.306-.31zm43.17 0c.499 0 .928.102 1.292.312.364.207.64.485.829.832.191.349.285.727.285 1.136 0 .175-.012.333-.038.477h-4.21c.004.43.093.787.265 1.077.169.288.392.502.664.638.275.136.57.204.886.204.46 0 .846-.115 1.157-.343.31-.23.495-.542.559-.933h.69c-.096.54-.352.98-.776 1.315-.421.333-.956.5-1.603.5-.482 0-.914-.102-1.29-.31a2.199 2.199 0 0 1-.88-.903c-.211-.394-.315-.858-.315-1.394 0-.535.104-1 .314-1.394a2.19 2.19 0 0 1 .881-.902c.376-.21.808-.311 1.29-.311zm-25.82-1.417c.74 0 1.29.17 1.653.512.365.341.548.81.548 1.406 0 .61-.189 1.081-.565 1.412-.376.331-.922.498-1.636.498h-1.304v2.742h-.662v-6.57h1.966zm34.077-.001c.658 0 1.154.148 1.487.442.332.297.498.692.498 1.189 0 .43-.114.771-.344 1.03a1.624 1.624 0 0 1-.885.508c.41.08.743.27.996.57.255.296.383.65.383 1.06 0 .529-.18.956-.54 1.28-.36.326-.883.491-1.567.491h-2.283v-6.57h2.255zm25.44 1.39v.706h-.215c-.49 0-.896.133-1.22.397-.322.264-.485.693-.485 1.29v2.787h-.662V7.767h.662v1.052c.15-.365.39-.649.718-.846.33-.2.73-.298 1.202-.298zM93.743 6.48v1.284h1.4v.57h-1.4v3c0 .361.066.607.196.742.13.133.359.2.69.2h.521v.577h-.605c-.492 0-.858-.117-1.1-.349-.242-.234-.363-.627-.363-1.178V8.335h-.774v-.57h.774V6.481h.66zm26.344-.52v4.042l2.021-2.235h.81l-2.337 2.513 2.404 2.573h-.84l-2.058-2.328v2.328h-.662V5.96h.662zm-7.53 1.714v.706h-.215c-.49 0-.896.133-1.22.397-.322.264-.485.693-.485 1.29v2.787h-.662V7.767h.662v1.052c.15-.365.389-.649.718-.846.33-.2.731-.298 1.202-.298zm-34.096 0v.706h-.215c-.49 0-.896.133-1.22.397-.323.264-.485.693-.485 1.29v2.787h-.662V7.767h.662v1.052c.15-.365.389-.649.718-.846.329-.2.73-.298 1.202-.298zm-30.527-1.39 1.696 3.308 1.697-3.307h.754l-2.115 4.006v2.563h-.662v-2.563l-2.126-4.006h.756zm19.457 1.39v.706h-.215c-.49 0-.896.133-1.22.397-.323.264-.485.693-.485 1.29v2.787h-.663V7.767h.663v1.052c.15-.365.389-.649.718-.846.329-.2.73-.298 1.202-.298zm12.599.093v5.086h-.663V7.768h.663zm1.574-.002 1.724 4.353 1.705-4.353h.708l-2.05 5.087h-.744l-2.052-5.087h.71zm-26.268.504c-.337 0-.646.075-.932.223-.286.15-.515.378-.69.686-.174.307-.26.684-.26 1.13 0 .45.086.824.26 1.13.175.304.404.53.69.68.286.148.595.225.932.225.33 0 .634-.077.917-.225.283-.15.51-.376.686-.68.173-.306.26-.68.26-1.13 0-.446-.087-.823-.26-1.13a1.704 1.704 0 0 0-.686-.686 1.947 1.947 0 0 0-.917-.223zm33.584.01c-.573 0-1.03.182-1.375.545-.345.363-.518.859-.518 1.486 0 .63.173 1.123.518 1.485.344.366.802.548 1.375.548.359 0 .684-.085.973-.253a1.77 1.77 0 0 0 .68-.713c.165-.308.247-.663.247-1.067 0-.404-.082-.759-.247-1.067a1.754 1.754 0 0 0-.68-.713 1.916 1.916 0 0 0-.973-.251zm26.846-.01c-.336 0-.646.075-.932.223-.286.15-.515.378-.69.686-.174.307-.26.684-.26 1.13 0 .45.086.824.26 1.13.175.304.404.53.69.68.286.148.596.225.932.225.33 0 .634-.077.916-.225a1.71 1.71 0 0 0 .687-.68c.173-.306.26-.68.26-1.13 0-.446-.087-.823-.26-1.13a1.699 1.699 0 0 0-.687-.686 1.938 1.938 0 0 0-.916-.223zm-9.106 1.444h-1.49v2.583h1.51c.492 0 .873-.114 1.146-.342.274-.226.41-.541.41-.946 0-.396-.14-.713-.418-.945-.282-.235-.666-.35-1.158-.35zm-8.154-1.482c-.329 0-.63.069-.902.205a1.627 1.627 0 0 0-.668.629c-.17.283-.261.637-.273 1.059h3.597c.025-.417-.044-.767-.206-1.053a1.52 1.52 0 0 0-.653-.635 1.968 1.968 0 0 0-.895-.205zm27.537 0c-.33 0-.629.069-.903.205a1.627 1.627 0 0 0-.667.629c-.172.283-.262.637-.275 1.059h3.598c.025-.417-.044-.767-.205-1.053a1.52 1.52 0 0 0-.653-.635 1.972 1.972 0 0 0-.895-.205zM72.59 6.835h-1.249v2.72h1.249c.566 0 .972-.115 1.22-.349.249-.233.373-.567.373-1.002 0-.446-.124-.787-.373-1.02-.248-.232-.654-.35-1.22-.35zm34.013-.001h-1.474v2.385h1.51c.46 0 .81-.105 1.048-.32.239-.216.358-.508.358-.88 0-.367-.118-.655-.352-.867-.237-.21-.6-.318-1.09-.318zM79.664 5.81c.142 0 .257.042.345.122.086.08.13.189.13.325 0 .13-.044.237-.13.317a.486.486 0 0 1-.346.12.493.493 0 0 1-.349-.12.4.4 0 0 1-.135-.317c0-.136.044-.244.135-.325a.5.5 0 0 1 .35-.122z" fill="#0F0914"/>
        <path fill="none" d="M0 0h160v38H0z"/>
        <path d="M38 0v19H19v19H0V0h38zm-6.244 22.071a2.272 2.272 0 0 1 3.212 3.212l-9.64 9.645a2.274 2.274 0 0 1-3.216-3.215z" fill="#DE2026"/>
        <path d="M34.968 15.928a2.272 2.272 0 0 1-3.212 0l-9.644-9.642a2.273 2.273 0 0 1 3.216-3.214l9.64 9.642a2.273 2.273 0 0 1 0 3.214z" fill="#FFF"/>
    </g>
</svg>
